# xmcd
#
# Track frame offsets:
#	150
#	13030
#	26247
#	36222
#	46727
#	58502
#	68707
#	79545
#	90370
#	101965
#	111142
#	121590
#	133035
#	142745
#	153982
#	164367
#	174317
#	184407
#	195282
#	206955
#	218870
#	227832
#	238187
#	248497
#	258867
#	270067
#	279662
#	292537
#	301245
#	312425
#
# Disc length: 4283 seconds
#
# Revision: 1
# Processed by: cddbd v1.4PL0 Copyright (c) Steve Scherf et al.
# Submitted via: audiograbber 1.80
#
DISCID=9010b91e
DTITLE=shirley and lee - the sweethearts of the blues disc 2
DYEAR=1900
DGENRE=
TTITLE0=feel so good 1955
TTITLE1=lee's dream 1955
TTITLE2=i'll do it (deed i do) 1955
TTITLE3=tell me so 1997
TTITLE4=that's what i'll do 1955
TTITLE5=a little word 1955
TTITLE6=let the good times roll 1956
TTITLE7=do you mean to hurt me so 1956
TTITLE8=everything (when i saw you) 1956
TTITLE9=we will be forever happy 1997
TTITLE10=i feel good 1956
TTITLE11=that's what i wanna do 1956
TTITLE12=now that's over 1956
TTITLE13=everything (when i saw you) 1957
TTITLE14=i want to dance 1957
TTITLE15=marry me 1957
TTITLE16=before i go 1975
TTITLE17=don't you know i love you 1957
TTITLE18=rock all night 1957
TTITLE19=rockin' with the clock 1957
TTITLE20=the flirt 1957
TTITLE21=love no one but you 1957
TTITLE22=live on the farm 1997
TTITLE23=everybody's rockin' 1958
TTITLE24=don't leave me here to cry 1958
TTITLE25=come on and have your fun 1958
TTITLE26=all i want to do is chry 1958
TTITLE27=true love never dies 1959
TTITLE28=when day is done 1959
TTITLE29=so tired 1997
EXTD=
EXTT0=
EXTT1=
EXTT2=
EXTT3=
EXTT4=
EXTT5=
EXTT6=
EXTT7=
EXTT8=
EXTT9=
EXTT10=
EXTT11=
EXTT12=
EXTT13=
EXTT14=
EXTT15=
EXTT16=
EXTT17=
EXTT18=
EXTT19=
EXTT20=
EXTT21=
EXTT22=
EXTT23=
EXTT24=
EXTT25=
EXTT26=
EXTT27=
EXTT28=
EXTT29=
PLAYORDER=
